# xmcd CD database file
#
# Track frame offsets:
#	150
#	21529
#	36940
#	51006
#	65125
#	77986
#	94944
#	111779
#	127582
#	145053
#	157849
#	168656
#	184350
#
# Disc length: 2690 seconds
#
# Revision: 0
# Processed by: cddbd v1.5.2PL0 Copyright (c) Steve Scherf et al.
# Submitted via: CDex 1.70beta2
#
DISCID=b30a800d
DTITLE=Ball and Chain - Cdn. - OVM -  - louisiana Love Bug
DYEAR=2009
DGENRE=Country
TTITLE0=Yessirree
TTITLE1=A Girl Like Me
TTITLE2=He's Already Gone
TTITLE3=Drivin' With Her Head
TTITLE4=Think It Over
TTITLE5=Open Pit Mine
TTITLE6=Whirlybird
TTITLE7=Winding River
TTITLE8=Queen of Pain
TTITLE9=Love Bug
TTITLE10=Moanin'
TTITLE11=Jody's Jump (inst.)
TTITLE12=Waltz In Blue
EXTD=YEAR: 2009
EXTT0=
EXTT1=
EXTT2=
EXTT3=
EXTT4=
EXTT5=
EXTT6=
EXTT7=
EXTT8=
EXTT9=
EXTT10=
EXTT11=
EXTT12=
PLAYORDER=
